<?xml version="1.0" encoding="UTF-8"?>
<!DOCTYPE svg PUBLIC "-//W3C//DTD SVG 1.1//EN" "http://www.w3.org/Graphics/SVG/1.1/DTD/svg11.dtd">
<!-- Creator: CorelDRAW X8 -->
<svg xmlns="http://www.w3.org/2000/svg" xml:space="preserve" width="138.128mm" height="111.548mm" version="1.1" style="shape-rendering:geometricPrecision; text-rendering:geometricPrecision; image-rendering:optimizeQuality; fill-rule:evenodd; clip-rule:evenodd"
viewBox="0 0 13412 10831"
 xmlns:xlink="http://www.w3.org/1999/xlink">
 <defs>
  <style type="text/css">
   <![CDATA[
    .fil1 {fill:#4D4D4F;fill-rule:nonzero}
    .fil0 {fill:#FF5000;fill-rule:nonzero}
   ]]>
  </style>
 </defs>
 <g id="Слой_x0020_1">
  <metadata id="CorelCorpID_0Corel-Layer"/>
  <path class="fil0" d="M5998 8796l0 -137 -773 0 0 -1296 -161 0 0 1433 934 0zm1219 0l0 -137 -776 0 0 -517 662 0 0 -137 -662 0 0 -505 776 0 0 -137 -937 0 0 1433 937 0zm1383 -732c0,-200 9,-419 -148,-568 -91,-87 -225,-133 -382,-133l-517 0 0 1433 517 0c157,0 291,-46 382,-133 157,-149 148,-400 148,-599zm-161 0c0,175 4,388 -99,491 -79,76 -181,104 -297,104l-329 0 0 -1159 329 0c116,0 218,28 297,105 103,102 99,283 99,459z"/>
  <path class="fil0" d="M5998 8796l0 -137 -773 0 0 -1296 -161 0 0 1433 934 0zm1219 0l0 -137 -776 0 0 -517 662 0 0 -137 -662 0 0 -505 776 0 0 -137 -937 0 0 1433 937 0zm1383 -732c0,-200 9,-419 -148,-568 -91,-87 -225,-133 -382,-133l-517 0 0 1433 517 0c157,0 291,-46 382,-133 157,-149 148,-400 148,-599zm-161 0c0,175 4,388 -99,491 -79,76 -181,104 -297,104l-329 0 0 -1159 329 0c116,0 218,28 297,105 103,102 99,283 99,459z"/>
  <path class="fil1" d="M6221 4770c101,0 182,-82 182,-183 0,-101 -81,-183 -182,-183l-991 0c-115,0 -209,94 -209,209l0 1686c0,113 91,205 204,205 113,0 205,-92 205,-205l1 0 0 -648 645 0 0 0c99,-2 178,-83 178,-182 0,-99 -79,-180 -178,-182l0 -1 -645 0 0 -516 790 0z"/>
  <path class="fil1" d="M8051 6245l-609 -1665 0 0c-24,-101 -115,-176 -223,-176 -108,0 -198,75 -222,176l0 0 -602 1646c-2,6 -4,12 -7,19l0 0c-5,19 -9,38 -9,59 0,110 90,200 200,200 90,0 166,-60 191,-141l79 -231 746 0 76 229 0 0c25,83 101,143 191,143 110,0 199,-89 199,-199 0,-22 -4,-41 -10,-60zm-1087 -458l0 0 265 -764 257 764 -522 0z"/>
  <path class="fil1" d="M9850 5047c0,-351 -253,-643 -681,-643 0,0 -503,0 -613,0 -111,0 -209,94 -209,209 0,116 0,1686 0,1686 0,113 91,205 204,205 114,0 205,-92 205,-205 0,-1 0,-2 0,-2l0 -631 295 0 353 720 0 0c34,70 105,118 188,118 116,0 209,-94 209,-210 0,-31 -7,-61 -20,-88l1 0 -315 -608c203,-73 383,-256 383,-551zm-707 277l-387 0 0 -554 387 0c179,0 297,115 297,277 0,162 -118,277 -297,277z"/>
  <path class="fil1" d="M10921 4387c-239,0 -422,82 -569,230 -213,212 -207,474 -207,837 0,363 -6,625 207,837 147,148 330,230 569,230 238,0 418,-82 566,-230 212,-212 209,-474 209,-837 0,-363 3,-625 -209,-837 -148,-148 -328,-230 -566,-230zm262 1657l0 0c-59,67 -150,112 -262,112 -112,0 -207,-45 -266,-112 -80,-89 -100,-186 -100,-590 0,-404 20,-501 100,-590 59,-67 154,-112 266,-112 112,0 203,45 262,112 79,89 103,186 103,590 0,404 -24,501 -103,590z"/>
  <path class="fil1" d="M12849 5277l-248 -35c-86,-12 -153,-45 -194,-83 -45,-41 -62,-97 -62,-150 0,-145 106,-266 324,-266 138,0 298,18 430,145l1 -1c33,34 78,54 129,54 101,0 183,-82 183,-183 0,-63 -32,-119 -81,-152 -173,-155 -376,-219 -650,-219 -454,0 -731,262 -731,636 0,177 50,313 150,413 94,92 227,147 407,174l253 36c98,14 145,35 186,73 44,41 65,103 65,177 0,168 -130,260 -372,260 -146,0 -284,-25 -400,-94 -1,-1 -2,-1 -2,-1 -29,-17 -62,-27 -98,-27 -104,0 -188,84 -188,188 0,65 32,123 82,157 8,5 16,9 24,13 163,95 351,129 577,129 439,0 778,-230 778,-637 0,-185 -50,-339 -162,-445 -89,-82 -210,-136 -401,-162z"/>
  <path class="fil0" d="M1694 6080l1546 1546c100,99 230,149 360,149 131,0 261,-50 361,-149 198,-199 198,-522 0,-721l-1547 -1545 1354 -1355c93,-92 93,-243 0,-336 -92,-92 -243,-92 -336,0l-1354 1354 -815 -815c-177,-177 -177,-464 0,-641l2698 -2698c198,-199 198,-521 0,-720 -199,-199 -522,-199 -721,0l-2889 2890c-226,226 -351,527 -351,848 0,322 125,623 351,849l1007 1008 -623 623c-226,226 -351,527 -351,849 0,321 125,622 351,848l2697 2698c47,46 108,69 168,69 61,0 122,-23 168,-69 93,-93 93,-243 0,-336l-2697 -2698c-136,-136 -211,-318 -211,-512 0,-195 75,-377 211,-513l623 -623z"/>
 </g>
</svg>
